<svg width="500" height="516" viewBox="0 0 500 516" fill="none" xmlns="http://www.w3.org/2000/svg">
<path d="M313.984 166.228L178.54 86.1921L49.252 166.228" stroke="#2652EA" stroke-width="40"/>
<path d="M202.676 163.515L65.2348 240.071L69.1002 392.078" stroke="#2652EA" stroke-width="40"/>
<path d="M130.778 246.264L129.673 403.584L263.851 475.12" stroke="#2652EA" stroke-width="40"/>
<path d="M172.391 347.57L308.674 426.168L437.108 344.77" stroke="#2652EA" stroke-width="40"/>
<path d="M293.101 352.413L432.246 279L431.835 126.945" stroke="#2652EA" stroke-width="40"/>
<path d="M355.853 268.76L356.16 111.436L221.621 40.5817" stroke="#2652EA" stroke-width="40"/>
<g clip-path="url(#clip0_408_9)">
<path d="M120.505 229.517C120.437 211.596 131.984 201.657 153.182 201.583C168.437 201.528 171.164 211.44 171.164 215.042C171.164 221.941 161.335 229.26 161.335 229.26C161.335 229.26 161.88 233.559 170.319 233.525C178.757 233.491 186.978 227.96 186.93 214.115C186.889 198.211 170.114 190.94 153.53 191.001C139.659 191.048 102.871 192.984 103 229.26C103.123 261.48 164.348 264.324 164.395 284.953C164.477 307.356 139.175 313.389 130.613 313.389C122.052 313.389 118.569 307.37 118.555 304.066C118.494 285.921 136.673 280.871 136.673 280.871C136.673 279.516 135.61 273.484 128.569 273.511C110.43 273.545 103.205 289.036 103.259 304.161C103.307 317.024 112.461 325.054 126.285 325C152.719 324.905 182.527 312.096 182.418 283.646C182.322 257.039 120.58 250.092 120.505 229.517Z" fill="white"/>
<path d="M372.499 300.802C372.288 300.295 371.695 300.417 370.911 301.06C367.912 303.517 361.055 310.477 345.009 310.538C315.753 310.647 310.675 262.753 310.675 262.753C310.675 262.753 332.971 246.22 336.454 239.551C339.937 232.882 328.854 231.426 328.854 231.426C328.854 231.426 313.258 250.275 302.202 255.8C303.402 247.601 311.581 228.915 312.052 218.17C312.522 207.425 299.026 210.046 296.872 211.075C296.872 215.766 284.95 258.359 280.608 281.771C278.052 285.833 274.398 290.478 271.126 290.484C269.231 290.484 268.536 286.998 268.516 282.001C268.516 275.068 272.36 263.958 272.333 257.208C272.333 252.536 270.172 252.259 268.311 252.266C267.909 252.266 265.673 252.327 265.264 252.327C260.493 252.327 262.06 248.264 257.766 248.305C244.624 248.352 227.883 262.604 227.154 284.113C222.716 287.032 216.507 290.708 213.337 290.721C210.011 290.721 209.186 287.668 209.179 285.027C209.179 280.39 216.732 252.834 216.732 252.834C216.732 252.834 226.349 250.383 230.548 249.578C233.725 248.962 234.638 248.731 235.872 247.208C237.106 245.685 239.519 242.537 241.468 239.707C243.418 236.877 241.502 234.69 237.896 234.703C233.166 234.703 220.508 237.682 220.508 237.682C220.508 237.682 226.588 211.643 226.581 211.115C226.574 210.587 225.9 210.31 224.87 210.316C222.566 210.316 218.456 211.549 215.825 212.483C211.797 213.911 208.518 218.813 207.857 221.095C207.195 223.376 202.642 241.243 202.642 241.243C202.642 241.243 178.26 249.605 174.927 250.857C174.827 250.891 174.741 250.955 174.68 251.04C174.619 251.125 174.586 251.227 174.586 251.331C174.586 251.548 177.374 262.164 183.093 262.123C187.183 262.123 199.2 257.235 199.2 257.235C199.2 257.235 193.024 281.608 193.065 289.733C193.065 294.946 195.539 301.053 205.791 301.019C215.334 301.019 223.684 296.124 228.36 292.719C230.916 299.144 236.956 300.904 241.08 300.89C250.323 300.89 257.439 293.565 258.352 292.583C259.552 295.4 262.381 300.809 268.843 300.789C272.496 300.789 276.279 296.727 279.067 292.786C279.014 293.605 279.026 294.427 279.101 295.244C280.219 305.345 295.317 299.408 296.142 298C296.653 290.694 296.333 275.759 299.271 266.538C303.17 297.993 317.961 319.15 344.552 319.055C359.419 319.001 367.046 314.756 370.202 311.256C371.469 309.864 372.348 308.166 372.751 306.333C373.154 304.499 373.067 302.593 372.499 300.802ZM244.917 290.43C232.15 290.478 248.823 257.607 259.716 257.567C259.729 261.805 259.491 290.383 244.917 290.43Z" fill="white"/>
<path d="M348.568 300.505C360.094 300.464 369.017 292.929 370.653 290.478C372.766 287.289 368.199 282.475 366.747 282.556C363.107 286.016 359.303 290.2 350.763 290.227C340.708 290.268 342.985 279.279 342.985 279.279C342.985 279.279 362.337 281.764 370.114 267.946C372.602 263.525 372.704 257.411 371.702 254.777C370.7 252.144 365.07 247.269 356.113 248.007C345.112 248.928 331.247 260.322 328.2 274.005C325.753 285.014 330.382 300.572 348.568 300.505ZM360.837 254.398C362.65 254.337 362.487 257.303 362.003 260.404C361.321 264.608 355.507 275.298 344.41 274.879C345.18 268.657 353.435 254.642 360.858 254.398H360.837Z" fill="white"/>
</g>
<path d="M383.064 202.2H392.6L399.896 247H392.856L391.576 238.104V238.232H383.576L382.296 247H375.768L383.064 202.2ZM390.744 232.152L387.608 210.008H387.48L384.408 232.152H390.744ZM403.312 202.2H410.352V247H403.312V202.2Z" fill="white"/>
<defs>
<clipPath id="clip0_408_9">
<rect width="270" height="134" fill="white" transform="translate(103 191)"/>
</clipPath>
</defs>
</svg>
